<mxfile host="Electron" agent="Mozilla/5.0 (Macintosh; Intel Mac OS X 10_15_7) AppleWebKit/537.36 (KHTML, like Gecko) draw.io/27.0.9 Chrome/134.0.6998.205 Electron/35.4.0 Safari/537.36" version="27.0.9" pages="4">
  <diagram name="Page-1" id="gwJG0W-ghjs16AQUbXvC">
    <mxGraphModel dx="675" dy="687" grid="1" gridSize="10" guides="1" tooltips="1" connect="1" arrows="1" fold="1" page="1" pageScale="1" pageWidth="850" pageHeight="1100" math="0" shadow="0">
      <root>
        <mxCell id="0" />
        <mxCell id="1" parent="0" />
        <mxCell id="mDjG-tFG8GZ5slptPhg5-4" value="" style="shape=cube;whiteSpace=wrap;html=1;boundedLbl=1;backgroundOutline=1;darkOpacity=0.05;darkOpacity2=0.1;fillColor=#ffe6cc;strokeColor=#d79b00;" vertex="1" parent="1">
          <mxGeometry x="155" y="880" width="540" height="290" as="geometry" />
        </mxCell>
        <mxCell id="mDjG-tFG8GZ5slptPhg5-9" style="edgeStyle=orthogonalEdgeStyle;rounded=0;orthogonalLoop=1;jettySize=auto;html=1;exitX=0.5;exitY=1;exitDx=0;exitDy=0;entryX=0.5;entryY=0;entryDx=0;entryDy=0;" edge="1" parent="1" source="mDjG-tFG8GZ5slptPhg5-2" target="mDjG-tFG8GZ5slptPhg5-8">
          <mxGeometry relative="1" as="geometry" />
        </mxCell>
        <mxCell id="mDjG-tFG8GZ5slptPhg5-2" value="0. Deserialize World" style="html=1;whiteSpace=wrap;align=center;" vertex="1" parent="1">
          <mxGeometry x="360" y="80" width="130" height="40" as="geometry" />
        </mxCell>
        <mxCell id="mDjG-tFG8GZ5slptPhg5-6" value="for simSecond := 0; i &amp;lt; simulationEnd; simSecond++:" style="text;strokeColor=none;fillColor=none;align=left;verticalAlign=middle;spacingLeft=4;spacingRight=4;overflow=hidden;points=[[0,0.5],[1,0.5]];portConstraint=eastwest;rotatable=0;whiteSpace=wrap;html=1;" vertex="1" parent="1">
          <mxGeometry x="185" y="910" width="310" height="30" as="geometry" />
        </mxCell>
        <mxCell id="mDjG-tFG8GZ5slptPhg5-12" style="edgeStyle=orthogonalEdgeStyle;rounded=0;orthogonalLoop=1;jettySize=auto;html=1;exitX=0.5;exitY=1;exitDx=0;exitDy=0;entryX=0.5;entryY=0;entryDx=0;entryDy=0;" edge="1" parent="1" source="mDjG-tFG8GZ5slptPhg5-8" target="mDjG-tFG8GZ5slptPhg5-10">
          <mxGeometry relative="1" as="geometry" />
        </mxCell>
        <mxCell id="mDjG-tFG8GZ5slptPhg5-8" value="1. Deserialize World" style="html=1;whiteSpace=wrap;align=center;" vertex="1" parent="1">
          <mxGeometry x="360" y="160" width="130" height="40" as="geometry" />
        </mxCell>
        <mxCell id="mDjG-tFG8GZ5slptPhg5-13" style="edgeStyle=orthogonalEdgeStyle;rounded=0;orthogonalLoop=1;jettySize=auto;html=1;exitX=0.5;exitY=1;exitDx=0;exitDy=0;entryX=0.5;entryY=0;entryDx=0;entryDy=0;" edge="1" parent="1" source="mDjG-tFG8GZ5slptPhg5-10" target="mDjG-tFG8GZ5slptPhg5-11">
          <mxGeometry relative="1" as="geometry" />
        </mxCell>
        <mxCell id="mDjG-tFG8GZ5slptPhg5-10" value="2. Init 1" style="html=1;whiteSpace=wrap;align=center;" vertex="1" parent="1">
          <mxGeometry x="360" y="240" width="130" height="40" as="geometry" />
        </mxCell>
        <mxCell id="mDjG-tFG8GZ5slptPhg5-11" value="2. Init 2" style="html=1;whiteSpace=wrap;align=center;" vertex="1" parent="1">
          <mxGeometry x="360" y="320" width="130" height="40" as="geometry" />
        </mxCell>
      </root>
    </mxGraphModel>
  </diagram>
  <diagram id="rz8lZdF7XwZ2Ql1fEzCt" name="Divide and conquer">
    <mxGraphModel dx="985" dy="1003" grid="1" gridSize="10" guides="1" tooltips="1" connect="1" arrows="1" fold="1" page="1" pageScale="1" pageWidth="850" pageHeight="1100" math="0" shadow="0">
      <root>
        <mxCell id="0" />
        <mxCell id="1" parent="0" />
        <mxCell id="jqRg-AFALJlLM-6MbEWL-10" style="rounded=0;orthogonalLoop=1;jettySize=auto;html=1;exitX=0.766;exitY=0.092;exitDx=0;exitDy=0;entryX=0;entryY=0.5;entryDx=0;entryDy=0;exitPerimeter=0;" edge="1" parent="1" source="jqRg-AFALJlLM-6MbEWL-2" target="jqRg-AFALJlLM-6MbEWL-7">
          <mxGeometry relative="1" as="geometry" />
        </mxCell>
        <mxCell id="jqRg-AFALJlLM-6MbEWL-14" style="rounded=0;orthogonalLoop=1;jettySize=auto;html=1;exitX=0.944;exitY=0.776;exitDx=0;exitDy=0;exitPerimeter=0;" edge="1" parent="1" source="jqRg-AFALJlLM-6MbEWL-2" target="jqRg-AFALJlLM-6MbEWL-13">
          <mxGeometry relative="1" as="geometry" />
        </mxCell>
        <mxCell id="jqRg-AFALJlLM-6MbEWL-16" style="rounded=0;orthogonalLoop=1;jettySize=auto;html=1;exitX=0.984;exitY=0.362;exitDx=0;exitDy=0;entryX=0;entryY=0.5;entryDx=0;entryDy=0;exitPerimeter=0;" edge="1" parent="1" source="jqRg-AFALJlLM-6MbEWL-2" target="jqRg-AFALJlLM-6MbEWL-15">
          <mxGeometry relative="1" as="geometry" />
        </mxCell>
        <mxCell id="jqRg-AFALJlLM-6MbEWL-18" style="rounded=0;orthogonalLoop=1;jettySize=auto;html=1;exitX=0;exitY=0.5;exitDx=0;exitDy=0;entryX=0.022;entryY=0.322;entryDx=0;entryDy=0;entryPerimeter=0;" edge="1" parent="1" source="jqRg-AFALJlLM-6MbEWL-2" target="jqRg-AFALJlLM-6MbEWL-17">
          <mxGeometry relative="1" as="geometry" />
        </mxCell>
        <mxCell id="jqRg-AFALJlLM-6MbEWL-21" style="rounded=0;orthogonalLoop=1;jettySize=auto;html=1;exitX=0.5;exitY=0;exitDx=0;exitDy=0;entryX=0;entryY=0.5;entryDx=0;entryDy=0;" edge="1" parent="1" source="jqRg-AFALJlLM-6MbEWL-2" target="jqRg-AFALJlLM-6MbEWL-19">
          <mxGeometry relative="1" as="geometry" />
        </mxCell>
        <mxCell id="jqRg-AFALJlLM-6MbEWL-2" value="Turtle&lt;br&gt;Intelligence&lt;div&gt;(&lt;span style=&quot;background-color: transparent; color: light-dark(rgb(0, 0, 0), rgb(255, 255, 255));&quot;&gt;Master)&lt;/span&gt;&lt;/div&gt;" style="ellipse;whiteSpace=wrap;html=1;aspect=fixed;fillColor=#dae8fc;strokeColor=#6c8ebf;" vertex="1" parent="1">
          <mxGeometry x="130" y="460" width="120" height="120" as="geometry" />
        </mxCell>
        <mxCell id="jqRg-AFALJlLM-6MbEWL-5" value="Database" style="shape=cylinder3;whiteSpace=wrap;html=1;boundedLbl=1;backgroundOutline=1;size=15;" vertex="1" parent="1">
          <mxGeometry x="580" y="500" width="80" height="110" as="geometry" />
        </mxCell>
        <mxCell id="jqRg-AFALJlLM-6MbEWL-7" value="Manufacturing&lt;div&gt;agent&lt;/div&gt;" style="ellipse;whiteSpace=wrap;html=1;aspect=fixed;" vertex="1" parent="1">
          <mxGeometry x="340" y="340" width="120" height="120" as="geometry" />
        </mxCell>
        <mxCell id="jqRg-AFALJlLM-6MbEWL-11" value="CNC Machine" style="image;html=1;image=img/lib/clip_art/computers/Virtual_Machine_128x128.png" vertex="1" parent="1">
          <mxGeometry x="770" y="520" width="80" height="80" as="geometry" />
        </mxCell>
        <mxCell id="jqRg-AFALJlLM-6MbEWL-13" value="HR&lt;div&gt;agent&lt;/div&gt;" style="ellipse;whiteSpace=wrap;html=1;aspect=fixed;" vertex="1" parent="1">
          <mxGeometry x="330" y="610" width="120" height="120" as="geometry" />
        </mxCell>
        <mxCell id="jqRg-AFALJlLM-6MbEWL-15" value="Logistics&lt;div&gt;agent&lt;/div&gt;" style="ellipse;whiteSpace=wrap;html=1;aspect=fixed;" vertex="1" parent="1">
          <mxGeometry x="340" y="480" width="120" height="120" as="geometry" />
        </mxCell>
        <mxCell id="jqRg-AFALJlLM-6MbEWL-17" value="Finances&lt;div&gt;agent&lt;/div&gt;" style="ellipse;whiteSpace=wrap;html=1;aspect=fixed;" vertex="1" parent="1">
          <mxGeometry x="320" y="750" width="120" height="120" as="geometry" />
        </mxCell>
        <mxCell id="jqRg-AFALJlLM-6MbEWL-19" value="Assets&lt;div&gt;management&lt;/div&gt;&lt;div&gt;agent&lt;/div&gt;" style="ellipse;whiteSpace=wrap;html=1;aspect=fixed;" vertex="1" parent="1">
          <mxGeometry x="340" y="210" width="120" height="120" as="geometry" />
        </mxCell>
        <mxCell id="jqRg-AFALJlLM-6MbEWL-22" style="rounded=0;orthogonalLoop=1;jettySize=auto;html=1;exitX=1;exitY=0.5;exitDx=0;exitDy=0;entryX=0.5;entryY=0;entryDx=0;entryDy=0;entryPerimeter=0;" edge="1" parent="1" source="jqRg-AFALJlLM-6MbEWL-19" target="jqRg-AFALJlLM-6MbEWL-5">
          <mxGeometry relative="1" as="geometry" />
        </mxCell>
        <mxCell id="jqRg-AFALJlLM-6MbEWL-23" style="rounded=0;orthogonalLoop=1;jettySize=auto;html=1;exitX=1;exitY=0.5;exitDx=0;exitDy=0;entryX=0.145;entryY=0;entryDx=0;entryDy=4.35;entryPerimeter=0;" edge="1" parent="1" source="jqRg-AFALJlLM-6MbEWL-7" target="jqRg-AFALJlLM-6MbEWL-5">
          <mxGeometry relative="1" as="geometry" />
        </mxCell>
        <mxCell id="jqRg-AFALJlLM-6MbEWL-24" style="rounded=0;orthogonalLoop=1;jettySize=auto;html=1;exitX=1;exitY=0.5;exitDx=0;exitDy=0;entryX=0;entryY=0;entryDx=0;entryDy=35;entryPerimeter=0;" edge="1" parent="1" source="jqRg-AFALJlLM-6MbEWL-15" target="jqRg-AFALJlLM-6MbEWL-5">
          <mxGeometry relative="1" as="geometry" />
        </mxCell>
        <mxCell id="jqRg-AFALJlLM-6MbEWL-25" style="rounded=0;orthogonalLoop=1;jettySize=auto;html=1;exitX=1;exitY=0.5;exitDx=0;exitDy=0;entryX=0;entryY=0.5;entryDx=0;entryDy=0;entryPerimeter=0;" edge="1" parent="1" source="jqRg-AFALJlLM-6MbEWL-13" target="jqRg-AFALJlLM-6MbEWL-5">
          <mxGeometry relative="1" as="geometry" />
        </mxCell>
        <mxCell id="jqRg-AFALJlLM-6MbEWL-26" style="rounded=0;orthogonalLoop=1;jettySize=auto;html=1;exitX=1;exitY=0.5;exitDx=0;exitDy=0;entryX=0;entryY=1;entryDx=0;entryDy=-15;entryPerimeter=0;" edge="1" parent="1" source="jqRg-AFALJlLM-6MbEWL-17" target="jqRg-AFALJlLM-6MbEWL-5">
          <mxGeometry relative="1" as="geometry" />
        </mxCell>
      </root>
    </mxGraphModel>
  </diagram>
  <diagram id="ZHBpiZO5rOZwNL_F138t" name="Divine and conquer architecture">
    <mxGraphModel dx="2032" dy="2303" grid="1" gridSize="10" guides="1" tooltips="1" connect="1" arrows="1" fold="1" page="1" pageScale="1" pageWidth="850" pageHeight="1100" math="0" shadow="0">
      <root>
        <mxCell id="0" />
        <mxCell id="1" parent="0" />
        <mxCell id="tFXlaTrnW9sLLmn5R9c0-1" style="rounded=0;orthogonalLoop=1;jettySize=auto;html=1;exitX=0.766;exitY=0.092;exitDx=0;exitDy=0;entryX=0;entryY=0.5;entryDx=0;entryDy=0;exitPerimeter=0;" edge="1" parent="1" source="tFXlaTrnW9sLLmn5R9c0-6" target="tFXlaTrnW9sLLmn5R9c0-8">
          <mxGeometry relative="1" as="geometry" />
        </mxCell>
        <mxCell id="tFXlaTrnW9sLLmn5R9c0-2" style="rounded=0;orthogonalLoop=1;jettySize=auto;html=1;exitX=0.965;exitY=0.69;exitDx=0;exitDy=0;exitPerimeter=0;" edge="1" parent="1" source="tFXlaTrnW9sLLmn5R9c0-6" target="tFXlaTrnW9sLLmn5R9c0-9">
          <mxGeometry relative="1" as="geometry" />
        </mxCell>
        <mxCell id="tFXlaTrnW9sLLmn5R9c0-3" style="rounded=0;orthogonalLoop=1;jettySize=auto;html=1;exitX=0.984;exitY=0.362;exitDx=0;exitDy=0;entryX=0;entryY=0.5;entryDx=0;entryDy=0;exitPerimeter=0;" edge="1" parent="1" source="tFXlaTrnW9sLLmn5R9c0-6" target="tFXlaTrnW9sLLmn5R9c0-10">
          <mxGeometry relative="1" as="geometry" />
        </mxCell>
        <mxCell id="tFXlaTrnW9sLLmn5R9c0-4" style="rounded=0;orthogonalLoop=1;jettySize=auto;html=1;exitX=0.5;exitY=1;exitDx=0;exitDy=0;entryX=0.5;entryY=0;entryDx=0;entryDy=0;" edge="1" parent="1" source="tFXlaTrnW9sLLmn5R9c0-6" target="tFXlaTrnW9sLLmn5R9c0-11">
          <mxGeometry relative="1" as="geometry" />
        </mxCell>
        <mxCell id="tFXlaTrnW9sLLmn5R9c0-5" style="rounded=0;orthogonalLoop=1;jettySize=auto;html=1;exitX=0.5;exitY=0;exitDx=0;exitDy=0;entryX=0;entryY=1;entryDx=0;entryDy=0;" edge="1" parent="1" source="tFXlaTrnW9sLLmn5R9c0-6" target="tFXlaTrnW9sLLmn5R9c0-12">
          <mxGeometry relative="1" as="geometry" />
        </mxCell>
        <mxCell id="tFXlaTrnW9sLLmn5R9c0-27" style="rounded=0;orthogonalLoop=1;jettySize=auto;html=1;exitX=0;exitY=0;exitDx=0;exitDy=0;entryX=0.694;entryY=0.954;entryDx=0;entryDy=0;entryPerimeter=0;" edge="1" parent="1" source="tFXlaTrnW9sLLmn5R9c0-6" target="tFXlaTrnW9sLLmn5R9c0-26">
          <mxGeometry relative="1" as="geometry" />
        </mxCell>
        <mxCell id="tFXlaTrnW9sLLmn5R9c0-6" value="Turtle&lt;br&gt;Intelligence&lt;div&gt;(&lt;span style=&quot;background-color: transparent; color: light-dark(rgb(0, 0, 0), rgb(255, 255, 255));&quot;&gt;Master)&lt;/span&gt;&lt;/div&gt;" style="ellipse;whiteSpace=wrap;html=1;aspect=fixed;fillColor=#dae8fc;strokeColor=#6c8ebf;" vertex="1" parent="1">
          <mxGeometry x="50" y="340" width="120" height="120" as="geometry" />
        </mxCell>
        <mxCell id="tFXlaTrnW9sLLmn5R9c0-21" style="rounded=0;orthogonalLoop=1;jettySize=auto;html=1;exitX=1;exitY=0.5;exitDx=0;exitDy=0;entryX=0;entryY=0.5;entryDx=0;entryDy=0;" edge="1" parent="1" source="tFXlaTrnW9sLLmn5R9c0-8" target="tFXlaTrnW9sLLmn5R9c0-18">
          <mxGeometry relative="1" as="geometry" />
        </mxCell>
        <mxCell id="tFXlaTrnW9sLLmn5R9c0-22" style="rounded=0;orthogonalLoop=1;jettySize=auto;html=1;exitX=1;exitY=0.5;exitDx=0;exitDy=0;entryX=0;entryY=0.5;entryDx=0;entryDy=0;" edge="1" parent="1" source="tFXlaTrnW9sLLmn5R9c0-8" target="tFXlaTrnW9sLLmn5R9c0-19">
          <mxGeometry relative="1" as="geometry" />
        </mxCell>
        <mxCell id="tFXlaTrnW9sLLmn5R9c0-8" value="Manufacturing&lt;div&gt;agent&lt;/div&gt;" style="ellipse;whiteSpace=wrap;html=1;aspect=fixed;" vertex="1" parent="1">
          <mxGeometry x="365" y="240" width="120" height="120" as="geometry" />
        </mxCell>
        <mxCell id="tFXlaTrnW9sLLmn5R9c0-9" value="HR&lt;div&gt;agent&lt;/div&gt;" style="ellipse;whiteSpace=wrap;html=1;aspect=fixed;" vertex="1" parent="1">
          <mxGeometry x="270" y="610" width="120" height="120" as="geometry" />
        </mxCell>
        <mxCell id="tFXlaTrnW9sLLmn5R9c0-10" value="Logistics&lt;div&gt;agent&lt;/div&gt;" style="ellipse;whiteSpace=wrap;html=1;aspect=fixed;" vertex="1" parent="1">
          <mxGeometry x="320" y="410" width="120" height="120" as="geometry" />
        </mxCell>
        <mxCell id="tFXlaTrnW9sLLmn5R9c0-11" value="Finances&lt;div&gt;agent&lt;/div&gt;" style="ellipse;whiteSpace=wrap;html=1;aspect=fixed;" vertex="1" parent="1">
          <mxGeometry x="50" y="640" width="120" height="120" as="geometry" />
        </mxCell>
        <mxCell id="tFXlaTrnW9sLLmn5R9c0-12" value="Assets&lt;div&gt;management&lt;/div&gt;&lt;div&gt;agent&lt;/div&gt;" style="ellipse;whiteSpace=wrap;html=1;aspect=fixed;" vertex="1" parent="1">
          <mxGeometry x="290" y="100" width="100" height="100" as="geometry" />
        </mxCell>
        <mxCell id="tFXlaTrnW9sLLmn5R9c0-18" value="Scheduling&lt;div&gt;agent&lt;/div&gt;" style="ellipse;whiteSpace=wrap;html=1;aspect=fixed;" vertex="1" parent="1">
          <mxGeometry x="560" y="190" width="80" height="80" as="geometry" />
        </mxCell>
        <mxCell id="tFXlaTrnW9sLLmn5R9c0-19" value="Forecasting&lt;div&gt;agent&lt;/div&gt;" style="ellipse;whiteSpace=wrap;html=1;aspect=fixed;" vertex="1" parent="1">
          <mxGeometry x="570" y="310" width="80" height="80" as="geometry" />
        </mxCell>
        <mxCell id="tFXlaTrnW9sLLmn5R9c0-23" value="&lt;h1 style=&quot;margin-top: 0px;&quot;&gt;&lt;font style=&quot;font-size: 16px;&quot;&gt;Manufacturing requirements&lt;/font&gt;&lt;/h1&gt;&lt;div&gt;&lt;font style=&quot;font-size: 16px;&quot;&gt;- the way company manufacture&lt;/font&gt;&lt;/div&gt;&lt;div&gt;&lt;span style=&quot;font-size: 16px;&quot;&gt;- planning exceptions&lt;/span&gt;&lt;/div&gt;&lt;div&gt;&lt;span style=&quot;font-size: 16px;&quot;&gt;&lt;br&gt;&lt;/span&gt;&lt;/div&gt;" style="text;html=1;whiteSpace=wrap;overflow=hidden;rounded=0;" vertex="1" parent="1">
          <mxGeometry x="670" y="210" width="290" height="180" as="geometry" />
        </mxCell>
        <mxCell id="tFXlaTrnW9sLLmn5R9c0-24" value="&lt;h1 style=&quot;margin-top: 0px;&quot;&gt;&lt;span style=&quot;font-size: 16px;&quot;&gt;Assets management requirements&lt;/span&gt;&lt;/h1&gt;&lt;div&gt;&lt;span style=&quot;font-size: 16px;&quot;&gt;- how company manage assets&lt;/span&gt;&lt;/div&gt;&lt;div&gt;&lt;span style=&quot;font-size: 16px;&quot;&gt;- accounting methods&lt;/span&gt;&lt;/div&gt;" style="text;html=1;whiteSpace=wrap;overflow=hidden;rounded=0;" vertex="1" parent="1">
          <mxGeometry x="400" y="20" width="280" height="110" as="geometry" />
        </mxCell>
        <mxCell id="tFXlaTrnW9sLLmn5R9c0-25" value="Finances&lt;div&gt;agent&lt;/div&gt;" style="ellipse;whiteSpace=wrap;html=1;aspect=fixed;" vertex="1" parent="1">
          <mxGeometry x="670" y="890" width="120" height="120" as="geometry" />
        </mxCell>
        <mxCell id="tFXlaTrnW9sLLmn5R9c0-31" style="rounded=0;orthogonalLoop=1;jettySize=auto;html=1;exitX=0.5;exitY=0;exitDx=0;exitDy=0;entryX=0.5;entryY=1;entryDx=0;entryDy=0;" edge="1" parent="1" source="tFXlaTrnW9sLLmn5R9c0-26" target="tFXlaTrnW9sLLmn5R9c0-30">
          <mxGeometry relative="1" as="geometry" />
        </mxCell>
        <mxCell id="tFXlaTrnW9sLLmn5R9c0-26" value="CRM&lt;div&gt;agent&lt;/div&gt;" style="ellipse;whiteSpace=wrap;html=1;aspect=fixed;" vertex="1" parent="1">
          <mxGeometry x="-40" y="170" width="120" height="120" as="geometry" />
        </mxCell>
        <mxCell id="tFXlaTrnW9sLLmn5R9c0-28" value="Product list&lt;div&gt;agent&lt;/div&gt;" style="ellipse;whiteSpace=wrap;html=1;aspect=fixed;" vertex="1" parent="1">
          <mxGeometry x="-160" y="60" width="90" height="90" as="geometry" />
        </mxCell>
        <mxCell id="tFXlaTrnW9sLLmn5R9c0-29" style="rounded=0;orthogonalLoop=1;jettySize=auto;html=1;exitX=0;exitY=0;exitDx=0;exitDy=0;entryX=1;entryY=1;entryDx=0;entryDy=0;" edge="1" parent="1" source="tFXlaTrnW9sLLmn5R9c0-26" target="tFXlaTrnW9sLLmn5R9c0-28">
          <mxGeometry relative="1" as="geometry" />
        </mxCell>
        <mxCell id="tFXlaTrnW9sLLmn5R9c0-30" value="Product list&lt;div&gt;agent&lt;/div&gt;" style="ellipse;whiteSpace=wrap;html=1;aspect=fixed;" vertex="1" parent="1">
          <mxGeometry x="-25" y="20" width="90" height="90" as="geometry" />
        </mxCell>
        <mxCell id="tFXlaTrnW9sLLmn5R9c0-32" value="&lt;h1 style=&quot;margin-top: 0px;&quot;&gt;&lt;span style=&quot;font-size: 16px;&quot;&gt;CRM rules&lt;/span&gt;&lt;/h1&gt;&lt;div&gt;&lt;span style=&quot;font-size: 16px;&quot;&gt;- how company manage assets&lt;/span&gt;&lt;/div&gt;&lt;div&gt;&lt;span style=&quot;font-size: 16px;&quot;&gt;- accounting methods&lt;/span&gt;&lt;/div&gt;" style="text;html=1;whiteSpace=wrap;overflow=hidden;rounded=0;" vertex="1" parent="1">
          <mxGeometry x="-250" y="-90" width="280" height="110" as="geometry" />
        </mxCell>
      </root>
    </mxGraphModel>
  </diagram>
  <diagram id="H2vlmrltM3QkDflcY_RJ" name="Entities architecture">
    <mxGraphModel dx="815" dy="830" grid="1" gridSize="10" guides="1" tooltips="1" connect="1" arrows="1" fold="1" page="1" pageScale="1" pageWidth="850" pageHeight="1100" math="0" shadow="0">
      <root>
        <mxCell id="0" />
        <mxCell id="1" parent="0" />
        <mxCell id="s54MNMyAVue0nU5BAhVY-12" value="" style="shape=cube;whiteSpace=wrap;html=1;boundedLbl=1;backgroundOutline=1;darkOpacity=0.05;darkOpacity2=0.1;fillColor=#ffe6cc;strokeColor=#d79b00;" vertex="1" parent="1">
          <mxGeometry x="130" y="270" width="540" height="210" as="geometry" />
        </mxCell>
        <mxCell id="s54MNMyAVue0nU5BAhVY-10" value="" style="shape=cube;whiteSpace=wrap;html=1;boundedLbl=1;backgroundOutline=1;darkOpacity=0.05;darkOpacity2=0.1;fillColor=#dae8fc;strokeColor=#6c8ebf;" vertex="1" parent="1">
          <mxGeometry x="130" y="500" width="540" height="210" as="geometry" />
        </mxCell>
        <mxCell id="s54MNMyAVue0nU5BAhVY-5" style="edgeStyle=orthogonalEdgeStyle;rounded=0;orthogonalLoop=1;jettySize=auto;html=1;exitX=0.5;exitY=0;exitDx=0;exitDy=0;entryX=0.5;entryY=1;entryDx=0;entryDy=0;" edge="1" parent="1" source="s54MNMyAVue0nU5BAhVY-1" target="s54MNMyAVue0nU5BAhVY-3">
          <mxGeometry relative="1" as="geometry" />
        </mxCell>
        <mxCell id="s54MNMyAVue0nU5BAhVY-6" style="edgeStyle=orthogonalEdgeStyle;rounded=0;orthogonalLoop=1;jettySize=auto;html=1;exitX=0;exitY=0;exitDx=0;exitDy=0;entryX=0.5;entryY=1;entryDx=0;entryDy=0;" edge="1" parent="1" source="s54MNMyAVue0nU5BAhVY-1" target="s54MNMyAVue0nU5BAhVY-2">
          <mxGeometry relative="1" as="geometry" />
        </mxCell>
        <mxCell id="s54MNMyAVue0nU5BAhVY-8" style="edgeStyle=orthogonalEdgeStyle;rounded=0;orthogonalLoop=1;jettySize=auto;html=1;exitX=1;exitY=0;exitDx=0;exitDy=0;" edge="1" parent="1" source="s54MNMyAVue0nU5BAhVY-1" target="s54MNMyAVue0nU5BAhVY-7">
          <mxGeometry relative="1" as="geometry" />
        </mxCell>
        <mxCell id="s54MNMyAVue0nU5BAhVY-1" value="Entity" style="ellipse;whiteSpace=wrap;html=1;aspect=fixed;" vertex="1" parent="1">
          <mxGeometry x="405" y="740" width="80" height="80" as="geometry" />
        </mxCell>
        <mxCell id="s54MNMyAVue0nU5BAhVY-18" style="edgeStyle=none;rounded=0;orthogonalLoop=1;jettySize=auto;html=1;exitX=0.5;exitY=0;exitDx=0;exitDy=0;entryX=0.5;entryY=1;entryDx=0;entryDy=0;" edge="1" parent="1" source="s54MNMyAVue0nU5BAhVY-2" target="s54MNMyAVue0nU5BAhVY-15">
          <mxGeometry relative="1" as="geometry" />
        </mxCell>
        <mxCell id="s54MNMyAVue0nU5BAhVY-2" value="Behaviour&lt;div&gt;Queue&lt;/div&gt;" style="ellipse;whiteSpace=wrap;html=1;aspect=fixed;" vertex="1" parent="1">
          <mxGeometry x="250" y="570" width="110" height="110" as="geometry" />
        </mxCell>
        <mxCell id="s54MNMyAVue0nU5BAhVY-19" style="edgeStyle=none;rounded=0;orthogonalLoop=1;jettySize=auto;html=1;exitX=0;exitY=0;exitDx=0;exitDy=0;entryX=1;entryY=1;entryDx=0;entryDy=0;" edge="1" parent="1" source="s54MNMyAVue0nU5BAhVY-3" target="s54MNMyAVue0nU5BAhVY-15">
          <mxGeometry relative="1" as="geometry" />
        </mxCell>
        <mxCell id="s54MNMyAVue0nU5BAhVY-20" style="edgeStyle=none;rounded=0;orthogonalLoop=1;jettySize=auto;html=1;exitX=0.5;exitY=0;exitDx=0;exitDy=0;entryX=0.5;entryY=1;entryDx=0;entryDy=0;" edge="1" parent="1" source="s54MNMyAVue0nU5BAhVY-3" target="s54MNMyAVue0nU5BAhVY-14">
          <mxGeometry relative="1" as="geometry" />
        </mxCell>
        <mxCell id="s54MNMyAVue0nU5BAhVY-3" value="Behaviour&lt;div&gt;Process&lt;/div&gt;" style="ellipse;whiteSpace=wrap;html=1;aspect=fixed;" vertex="1" parent="1">
          <mxGeometry x="390" y="570" width="110" height="110" as="geometry" />
        </mxCell>
        <mxCell id="s54MNMyAVue0nU5BAhVY-21" style="edgeStyle=none;rounded=0;orthogonalLoop=1;jettySize=auto;html=1;exitX=0;exitY=0;exitDx=0;exitDy=0;entryX=1;entryY=1;entryDx=0;entryDy=0;" edge="1" parent="1" source="s54MNMyAVue0nU5BAhVY-7" target="s54MNMyAVue0nU5BAhVY-14">
          <mxGeometry relative="1" as="geometry" />
        </mxCell>
        <mxCell id="s54MNMyAVue0nU5BAhVY-7" value="Behaviour&lt;div&gt;Sink&lt;/div&gt;" style="ellipse;whiteSpace=wrap;html=1;aspect=fixed;" vertex="1" parent="1">
          <mxGeometry x="530" y="570" width="110" height="110" as="geometry" />
        </mxCell>
        <mxCell id="s54MNMyAVue0nU5BAhVY-11" value="Behaviours" style="text;html=1;align=center;verticalAlign=middle;whiteSpace=wrap;rounded=0;" vertex="1" parent="1">
          <mxGeometry x="160" y="530" width="70" height="30" as="geometry" />
        </mxCell>
        <mxCell id="s54MNMyAVue0nU5BAhVY-13" value="Behaviour Interfaces" style="text;html=1;align=center;verticalAlign=middle;whiteSpace=wrap;rounded=0;" vertex="1" parent="1">
          <mxGeometry x="160" y="300" width="180" height="30" as="geometry" />
        </mxCell>
        <mxCell id="s54MNMyAVue0nU5BAhVY-14" value="Actor taker" style="ellipse;whiteSpace=wrap;html=1;aspect=fixed;" vertex="1" parent="1">
          <mxGeometry x="390" y="340" width="110" height="110" as="geometry" />
        </mxCell>
        <mxCell id="s54MNMyAVue0nU5BAhVY-15" value="Actor provider" style="ellipse;whiteSpace=wrap;html=1;aspect=fixed;" vertex="1" parent="1">
          <mxGeometry x="250" y="340" width="110" height="110" as="geometry" />
        </mxCell>
      </root>
    </mxGraphModel>
  </diagram>
</mxfile>
